<svg xmlns="http://www.w3.org/2000/svg" width="2500pt" height="1150pt" version="1.0" viewBox="0 0 2500 1150"><g style="fill:#000;stroke:none"><path d="M150 5502V3674l191-284c105-156 369-549 587-874s535-798 705-1051 381-569 470-702l162-242 1288-1c708 0 1287 3 1287 6 0 4-84 129-187 278s-370 537-593 861c-701 1018-1351 1962-1505 2185-82 118-243 352-358 520-116 168-280 406-365 530-86 124-363 527-617 895-254 369-595 865-759 1103-164 237-300 432-302 432s-4-823-4-1828z" style="fill:#d21241;fill-opacity:1;stroke:none" transform="matrix(.1 0 0 -.1 1194.104 786.51)"/></g><g style="fill:#000;stroke:none"><path d="M1179.6 97c-16.5 23.9-50.7 73.6-76.1 110.5-25.4 36.8-53.1 77.1-61.7 89.5-8.5 12.4-24.9 36.2-36.5 53-11.5 16.8-27.6 40.2-35.8 52-15.4 22.3-80.4 116.7-150.5 218.5-22.3 32.4-49 71.2-59.3 86.1-10.3 14.9-18.7 27.4-18.7 27.8 0 .3 57.9.6 128.8.6l128.7-.1 16.2-24.2c16.6-24.9 62.7-93.6 127.6-190.2 20.3-30.3 43.8-65.4 52.3-78l15.4-23-.2-183-.3-183-29.9 43.5zM2409.2 972.1c-27.2 13.5-17.5 54.4 12.8 54.2 15.3 0 26.7-10.8 27.8-26.3.7-9.6-1.7-16-8.2-22.5-9-9.1-21.1-11.1-32.4-5.4zm24.9 5.4c12.7 9 13.7 28.2 2.1 38.7-13.7 12.4-35.2 3-36.9-16.1-1-10.3 4.4-20.2 13.2-24.3 6.3-2.9 16.2-2.1 21.6 1.7z"/><path d="m2414.3 981.7-3.3.4v16c0 13.3.2 16.1 1.5 16.5 1.7.7 4.6-1.3 4.4-3-.1-.6-.1-3.3 0-5.9l.1-4.8 3.7.3c4.2.3 5.8 2.5 6.8 9 .5 3 1.1 3.9 3.1 4.4 1.4.4 2.7.4 3 .2.9-.9-1.7-11.4-3.4-13.7-1.7-2.4-1.7-2.5.6-4.8 3.2-3.2 2.8-9.8-.8-12.4-2.6-1.9-10-2.9-15.7-2.2zm11.7 6.3c2.4 2.4 2.4 2.9.4 5.8-1.1 1.6-2.5 2.2-5.4 2.2-4.3 0-4.7-.5-4.2-6.1.4-3.7.6-3.9 3.8-3.9 2.1 0 4.2.8 5.4 2zM964.5 975.2c-51.1 5-84.5 29.5-84.5 61.7.1 29.5 24.9 50.2 69 57.6 13.4 2.3 41.8 3 57.8 1.6 11.9-1.1 23.6-3.2 24.7-4.3.5-.5-5.9-23.6-6.8-24.4-.3-.3-3.1 0-6.4.6-3.2.6-13.2 1.4-22.3 1.7-14 .4-17.9.2-26.1-1.5-23.2-4.8-35-16.1-35.1-33.3-.1-16.2 12.7-28.2 34.6-32.4 13.1-2.5 40-1.6 54.7 1.8.6.1 3.3-5.4 6-12.2 3.8-9.3 4.7-12.6 3.8-13.2-1.7-1-11.3-2.7-23.4-3.9-11-1.2-33.5-1.1-46 .2zM1689.5 974.7c-7 .8-19.5 3.6-27 6-29.5 9.5-47.6 28.7-49.2 52.4-1.1 14.9 3.9 27.4 15.6 38.9 12.5 12.4 29.9 20 54.1 23.7 15.3 2.3 43.5 1.3 58.5-2 39-8.7 60.5-29.7 60.5-59.2 0-14.2-5.3-25.7-16.4-36.3-9.2-8.6-17-13.1-30.4-17.5-14.6-4.8-29.2-6.8-47.7-6.5-8.2.1-16.3.3-18 .5zm32.5 26.9c6.2 1.7 14.6 7 17.7 11.2 5.8 7.9 6.8 11.1 6.8 22.7 0 10.2-.2 11.4-2.9 16.8-3.6 7-8.9 12-16.5 15.5-8 3.8-24.9 4.4-34.8 1.3-9.3-2.8-15.7-8-20.2-16.1-3.5-6.3-3.6-6.8-3.6-17 0-12.4 1.7-17.1 8.9-24.8 10-10.6 27.2-14.3 44.6-9.6zM658 976c-5.8.4-12.4.8-14.7.9l-4.3.1v118h51.8l.1-22.1v-22.2l9.8.2c15.8.3 20.4 3.4 26.3 17.8 4.8 11.9 8.7 20.1 11 23.4l2.1 2.9h52.8l-2.4-4.3c-1.3-2.3-4.9-10.3-8-17.7-8.8-20.8-14.4-27.7-25.7-32.1l-4.2-1.6 5.5-1.8c11.5-3.7 22.5-12.1 25.7-19.5 4.8-11.5-1.7-25.9-14.9-32.5-15.6-7.9-27.8-9.7-67.9-10-17.9-.1-37.2.1-43 .5zm66.8 25.4c9.3 4 11.9 11.8 6 18-5.2 5.4-10.4 6.8-26 7.4l-13.8.5v-28.5l14.8.4c11.1.3 15.7.9 19 2.2zM2236.5 976.2c-7.7.4-14.6 1-15.3 1.3-1 .4-1.2 12.4-1.2 57.5 0 31.3.3 57.7.6 58.5.5 1.3 4.3 1.5 26 1.5h25.4v-44h9.1c16.5 0 21.4 3.1 27 17.2 1.9 4.6 5.4 12.3 7.9 17.3l4.5 9 26.8.3 26.8.2-2.5-4.7c-1.3-2.7-4.3-9.3-6.6-14.8-9.4-22.3-15.7-30.5-26-34.2l-4.7-1.7 7.6-3.1c12.4-5 19.1-10.2 22.7-18 4.3-9.1 2.3-18.7-5.5-26.5-8.2-8.2-24-13.7-45.5-15.9-12.5-1.3-56.3-1.2-77.1.1zm68.7 24.7c9.8 3.1 13.2 12.6 6.8 19-4.8 4.7-10.8 6.3-26.2 6.8l-13.8.5v-13.4c0-7.4.3-13.8.8-14.2 1.1-1.2 28.2-.1 32.4 1.3zM104.2 978.7c-.5 1.6-8.6 19-17.9 38.8-27.2 57.7-31.5 66.7-33.9 72.2L50 1095h53.6l5.3-13.5 5.2-13.5 25 .2 25 .3 5.8 13 5.8 13 28.1.3 28.1.2-7.3-15.2c-4-8.4-16.9-35.2-28.6-59.6L174.7 976h-69.5l-1 2.7zm43.2 43c4.7 11.7 8.6 21.5 8.6 21.8 0 .3-7.6.5-17 .5-9.3 0-17-.4-17-.8 0-.8 12.7-35.3 15.1-41.1.5-1.3 1.1-2.2 1.3-2 .2.2 4.3 10 9 21.6zM256.6 979.7c-.3 2.1-1.7 15.7-3.1 30.3-1.4 14.6-2.7 28.3-3 30.5-.2 2.2-1.4 13.2-2.5 24.5s-2.3 22.6-2.6 25.2l-.6 4.8H293l.1-4.8c0-2.6.2-5.8.4-7.2.6-3.8 3.4-44.6 4.1-60.5.4-7.7 1-14.7 1.5-15.5.7-1.3.8-1.2.9.2 0 3.3 10.7 34.6 20.5 60l9.9 25.8h40.4l15.1-32.8c8.3-18 17-37.6 19.4-43.5 2.5-5.9 4.7-11.1 5.1-11.4.3-.4.6 7.2.6 16.8.1 9.6.3 20.8.5 24.9 1 15.4 2.5 43.3 2.5 45.6v2.4h50.6l-1.7-20.8c-2.8-32.9-7.9-95.7-7.9-97 0-.9-8.6-1.2-34.2-1.2l-34.3.1-8.5 18.7c-4.6 10.3-11.6 26.9-15.6 37-3.9 10-7.3 18.5-7.6 18.7-.3.3-2.2-4.8-4.2-11.2-2.1-6.5-8.3-23.4-13.8-37.6L326.7 976h-69.5l-.6 3.7zM489 1035.5v59.5h129v-26h-77v-22h69v-26h-69v-19h73v-26H489v59.5zM808 1035.5v59.5h52V976h-52v59.5zM1095.1 982.2c-1.6 3.5-11.7 25.2-22.6 48.3-10.9 23.1-20.4 43.4-21.1 45.2-.8 1.8-3.2 6.9-5.3 11.3l-4 8 27.1-.2 27-.3 5.2-13.3 5.1-13.2h50l5.9 13.5 5.9 13.5h27.8c15.4 0 27.9-.2 27.9-.4s-12.7-26.9-28.3-59.3l-28.3-58.8-34.7-.3-34.8-.2-2.8 6.2zm43.7 36.8c3.8 9.6 7.8 19.2 8.6 21.2l1.6 3.8h-17.5c-9.6 0-17.5-.2-17.5-.5 0-.2 2.7-7.4 6-15.9 3.3-8.6 6-15.8 6-16 0-2 4.4-11.6 4.9-10.9.4.4 4 8.7 7.9 18.3zM1241 1035.5v59.5h48.3l-.7-35.8c-.3-19.6-.9-38.1-1.2-41-.3-2.8-.4-5.2 0-5.2.3 0 2.4 2.8 4.7 6.2 7.7 11.4 16.8 23 38.7 49.5l21.7 26.3h54.5V976h-47.2l.5 29.7c.4 16.4 1.2 34 2 39 .7 5.1 1.2 9.2 1.1 9-.1-.1-3.7-5.4-7.9-11.7-9-13.4-9.2-13.6-33.9-43.3l-19-22.7H1241v59.5zM1462 989.5v13.5h49v92h52v-92h50v-27h-151v13.5zM1806 976.7c0 .5 9.7 27.2 21.7 59.5l21.8 58.8h57.4l4.5-14.3c2.4-7.8 6.3-20.1 8.5-27.2 4-12.8 8.3-29.4 9.7-36.8.3-2.1.8-3.6 1-3.5.2.2 1.5 6 2.9 12.8 2.9 13.9 17.3 67.1 18.4 68.3.4.4 13.3.6 28.6.5l28-.3 23.2-58.5c12.8-32.2 23.3-58.8 23.3-59.3 0-.4-11.7-.7-25.9-.7h-25.9l-1.6 5.2c-.9 2.9-5.2 20.1-9.7 38.3-4.5 18.1-8.6 34.8-9.2 37-.9 3.9-1.1 3.4-4.4-12-1.8-8.8-6.4-27.7-10.2-42l-6.8-26h-55.7l-6.3 22c-3.4 12.1-8.5 30.5-11.3 41-2.8 10.4-5.4 19.7-5.7 20.5-.3.8-2.7-7.7-5.3-19-4.1-17.6-11.8-48.8-15.1-61.3l-1-3.7h-27.4c-15.1 0-27.5.3-27.5.7zM2070 1035.5v59.5h129v-26h-77v-22h69v-26h-69v-19h73v-26h-125v59.5z"/></g></svg>